<?xml version="1.0" standalone="no"?> <!DOCTYPE svg PUBLIC "-//W3C//DTD SVG 1.0//EN" "http://www.w3.org/TR/2001/REC-SVG-20010904/DTD/svg10.dtd" > <svg xmlns="http://www.w3.org/2000/svg" width="100%" height="100%">
<defs >
<font id="trajanprobold" horiz-adv-x="608" ><font-face
    font-family="TrajanPro-Bold"
    units-per-em="1000"
    panose-1="2 2 6 2 5 5 6 2 3 1"
    ascent="750"
    descent="-250"
    alphabetic="0" />
<missing-glyph horiz-adv-x="500" d="M0 0H500V700H0V0ZM250 395L80 650H420L250 395ZM280 350L450 605V95L280 350ZM80 50L250 305L420 50H80ZM50 605L220 350L50 95V605Z" />
<glyph unicode=" " glyph-name="space" horiz-adv-x="300" />
<glyph unicode="!" glyph-name="exclam" horiz-adv-x="320" d="M160 -17Q186 -17 201 0T217 43Q217 67 201 81T161 96Q131 96 118 77T105 39Q105 20 118 2T160 -17ZM158 164Q166 164 168 172T173 196Q174 202 177 235T184 314T194 413T203 511T211 588T215 625Q220
681 225 714T231 754Q231 767 222 767Q206 767 184 757Q164 749 138 733T94 694Q89 686 89 678Q89 673 92 667T97 652Q100 638 103 611T110 554T115 502T118 472Q118 468 120 450T124 406T130 348T135 289T140 236T143 200Q145 183 147 174T158 164Z" />
<glyph unicode="&quot;" glyph-name="quotedbl" horiz-adv-x="360" d="M109 755Q86 755 72 753T58 740Q58 734 62 722T72 687T84 631T95 550Q101 500 109 500Q117 500 123 550Q127 597 133 630T146 686T156 721T160 740Q160 751 146 753T109 755ZM251 755Q228
755 214 753T200 740Q200 734 204 722T214 687T226 631T237 550Q243 500 251 500Q259 500 265 550Q269 597 275 630T288 686T298 721T302 740Q302 751 288 753T251 755Z" />
<glyph unicode="#" glyph-name="numbersign" horiz-adv-x="600" d="M571 460V542H464L495 754H435L404 542H253L286 754H225L193 542H59V460H182L159 310H29V229H148L113 0H173L207 229H359L328 0H387L420 229H543V310H431L453 460H571ZM393 460L372 310H219L243
460H393Z" />
<glyph unicode="$" glyph-name="dollar" horiz-adv-x="600" d="M303 0Q333 0 370 10T441 45T496 108T519 206Q519 247 507 280T474 342T421 396T353 446L384 717Q396 717 417 709T452 687Q472 667 476 649T482 610Q482 599 484 595T492 591Q500 591 503 605Q504
612 506 627T510 659T513 691T515 715Q515 727 512 731T498 740Q484 745 454 752T388 759L400 850Q401 857 392 855L362 848Q359 847 356 846T351 839L341 759Q307 759 270 748T201 715T150 659T129 579Q129 543 139 514T169 456T220 400T292 341L260 46Q238 46
211 57T162 91Q144 111 138 136T133 182Q134 198 133 203T126 209Q117 209 111 185Q109 175 103 141T96 64Q96 44 102 37T130 21Q144 15 162 11T199 5T232 1T256 0L246 -85Q245 -96 253 -95L284 -89Q293 -87 294 -81L303 0ZM309 475Q274 503 247 533T220 605Q220
640 233 662T264 696T302 712T336 717L309 475ZM337 311Q375 285 400 253T425 174Q425 147 417 124T393 85T356 58T310 46L337 311Z" />
<glyph unicode="%" glyph-name="percent" horiz-adv-x="868" d="M645 0Q695 0 730 17T787 61T820 123T831 191Q831 221 821 252T789 308T734 350T652 367Q602 367 567 350T510 306T478 245T468 176Q468 147 478 116T509 59T563 17T645 0ZM649 34Q627 34 610 48T580
84T561 135T554 190Q554 219 559 245T576 290T605 321T647 333Q669 333 687 319T718 283T738 233T745 177Q745 114 720 74T649 34ZM310 -4Q316 -3 320 8L607 740Q612 751 615 758T618 769Q618 773 608 773Q597 773 560 770T470 762T354 754T226 750Q176 750 141
733T82 689T48 627T37 558Q37 529 47 498T78 441T132 399T214 382Q263 382 298 399T355 443T388 505T399 573Q399 621 380 658T335 711V713Q342 713 368 715T429 719T497 724T555 729Q552 724 535 684T490 581T430 441T362 284T295 131T237 1Q233 -8 235 -11T247
-12L310 -4ZM218 416Q196 416 179 430T149 466T130 517T123 572Q123 601 128 627T145 672T174 703T216 715Q238 715 256 701T287 665T307 615T314 559Q314 496 289 456T218 416Z" />
<glyph unicode="&amp;" glyph-name="ampersand" horiz-adv-x="830" d="M58 204Q58 171 71 133T117 61T202 6T336 -17Q387 -17 426 -7T493 17T541 47T573 74Q605 49 630 34T680 11T736 0T809 -3H886Q903 -3 909 -1T916 6Q916 12 913 13T902 15Q894 15 881 18T853
25T823 36T795 50Q775 62 741 84T656 148Q677 173 695 202T726 263T746 325T754 385Q754 394 744 398T720 405Q678 410 648 411T600 412Q594 412 589 410T584 402Q584 397 587 396T596 394Q607 394 621 391T645 379Q656 369 660 357T664 333Q664 310 660 287T648
244T632 206T616 179Q611 183 599 194T570 221T534 254T497 289T464 321T440 346Q410 379 381 411T327 475T289 541T274 609Q274 641 285 662T312 697T346 717T381 723Q423 723 450 710T492 678Q509 658 515 636T521 594Q521 583 522 579T528 575Q533 575 535 578T540
592Q541 598 543 614T546 649T549 688T551 720Q551 729 549 735T534 746Q514 754 482 760T413 767Q348 767 302 750T226 705T184 646T170 583Q171 549 180 516T221 441Q198 430 170 408T117 356T75 287T58 204ZM370 46Q331 46 296 60T235 101T194 166T178 251Q178
311 199 347T247 403Q253 394 267 377T297 342T328 306T354 278Q364 267 385 246T432 200T485 150T534 106Q526 98 511 88T473 69T425 53T370 46Z" />
<glyph unicode="&apos;" glyph-name="quotesingle" horiz-adv-x="218" d="M109 755Q86 755 72 753T58 740Q58 734 62 722T72 687T84 631T95 550Q101 500 109 500Q117 500 123 550Q127 597 133 630T146 686T156 721T160 740Q160 751 146 753T109 755Z" />
<glyph unicode="(" glyph-name="parenleft" horiz-adv-x="360" d="M154 321Q154 391 169 456T207 574T253 667T294 727Q300 733 300 738Q300 746 293 746Q289 746 281 740Q265 730 243 709T195 658T146 590T102 508T70 413T57 308Q57 227 81 158T140 35T214 -57T282
-117Q289 -122 292 -122Q300 -122 300 -115Q300 -110 297 -107T292 -100Q262 -62 237 -19T194 76T165 188T154 321Z" />
<glyph unicode=")" glyph-name="parenright" horiz-adv-x="360" d="M206 303Q206 232 191 168T153 50T107 -43T66 -103Q60 -109 60 -114Q60 -122 67 -122Q71 -122 79 -116Q94 -106 117 -85T165 -34T214 34T258 116T290 211T303 316Q303 397 279 466T220 589T146
681T78 741Q71 746 68 746Q60 746 60 739Q60 734 63 731T68 724Q98 686 123 643T166 548T195 436T206 303Z" />
<glyph unicode="*" glyph-name="asterisk" horiz-adv-x="380" d="M185 634Q187 634 187 632T189 628Q191 619 195 605T205 575T216 546T224 525Q233 511 240 511Q244 511 253 517T273 531T292 548T300 563Q300 568 296 569T286 573Q281 574 270 582T245 600T219
621T202 640Q199 645 201 647Q205 649 206 649Q217 648 236 648T273 647T305 646T321 647Q331 648 331 655Q331 663 329 676T323 701T315 723T307 732Q300 732 293 722Q290 719 282 712T261 695T233 677T202 663Q198 662 197 663Q195 667 197 669Q202 684 207 702T218
738T226 772T230 797Q230 808 220 808Q214 808 202 806T177 799T155 790T146 780Q146 775 148 772T152 764Q153 761 157 751T167 726T176 697T182 670Q182 665 181 663Q177 661 174 664Q170 668 156 679T125 702T91 723T62 732Q54 732 52 730T49 719Q49 711 50
699T52 676T56 656T61 648Q66 648 69 648T78 650Q82 650 93 650T118 651Q132 651 146 651T168 649Q172 649 172 646Q172 643 169 640Q164 637 151 627T122 603T93 578T76 560Q66 549 66 543Q66 540 72 536T87 527T109 520T133 517Q145 517 145 525Q145 531 146
537T150 548Q151 554 155 566T165 592T174 617T181 631Q182 634 185 634Z" />
<glyph unicode="+" glyph-name="plus" horiz-adv-x="549" d="M509 223V284H306V488H242V284H40V223H242V19H306V223H509Z" />
<glyph unicode="," glyph-name="comma" horiz-adv-x="250" d="M64 71Q64 66 70 60T85 44T99 20T106 -16Q106 -33 100 -54T77 -103Q75 -107 72 -111T69 -120Q69 -124 72 -127T77 -130Q82 -130 85 -127T94 -118Q107 -103 119 -85T141 -49T160 -13T173 15Q178 27
182 41T186 63Q186 71 182 83T164 115Q154 130 150 135T139 140Q128 140 115 134T90 119T72 97T64 71Z" />
<glyph unicode="-" glyph-name="hyphen" horiz-adv-x="425" d="M75 315Q62 315 58 313T51 302L36 233Q34 225 36 220T44 215Q50 215 61 221T88 231Q97 233 116 237T161 246T215 256T269 266T315 274T346 279Q367 283 379 286T391 301Q391 310 382 312T359 315H75Z" />
<glyph unicode="." glyph-name="period" horiz-adv-x="250" d="M124 0Q153 0 169 19T186 64Q186 90 169 106T125 122Q109 122 98 116T79 101T68 81T64 61Q64 40 78 20T124 0Z" />
<glyph unicode="/" glyph-name="slash" horiz-adv-x="542" d="M53 -19Q60 -23 66 -13L525 732Q531 741 524 744L488 766Q480 771 474 761L18 21Q11 8 18 4L53 -19Z" />
<glyph unicode="0" glyph-name="zero" horiz-adv-x="600" d="M559 398Q559 438 554 480T538 564T508 642T461 706T396 750T308 767Q239 767 189 735T105 648T57 516T41 353Q41 317 46 276T62 194T92 115T139 48T205 1T292 -17Q356 -17 406 13T490 97T541 228T559
398ZM442 359Q442 286 433 226T407 121T366 53T311 28Q270 28 241 60T194 144T167 261T158 391Q158 562 194 642T287 722Q328 722 357 690T405 606T433 489T442 359Z" />
<glyph unicode="1" glyph-name="one" horiz-adv-x="600" d="M258 301Q259 229 258 169T253 76Q251 52 244 40T213 23Q206 21 195 20T171 18T148 17T133 16Q125 16 125 6Q125 -3 142 -3Q166 -3 192 -3T243 -2T285 -1T313 0Q333 0 378 -1T480 -3Q496 -3 496 6Q496
11 493 13T487 16Q484 16 476 16T457 18T437 20T421 22Q397 27 390 39T381 76Q378 109 378 169T377 301V486Q377 601 380 670T383 746Q383 754 381 760T371 767Q365 767 359 763T345 754Q336 747 316 734T271 703T218 668T168 635T130 610T114 600Q110 598 107
595T104 586Q104 581 107 578T112 575Q116 575 126 579Q134 582 150 590T185 606T219 621T242 627Q253 627 255 618T257 591V460L258 301Z" />
<glyph unicode="2" glyph-name="two" horiz-adv-x="600" d="M445 0Q492 0 509 5T532 30Q536 43 541 64T550 108T558 148T561 173Q561 181 560 186T553 192Q545 192 541 176Q532 141 506 117T427 87Q413 85 387 84T334 82T283 81Q261 81 255 81H187Q183 81 182
83T185 88Q217 114 255 145T331 211T405 287T468 370T512 459T529 554Q529 598 515 636T470 704T392 750T278 767Q212 767 169 756T97 729Q89 724 87 720T85 709Q85 698 86 679T88 641T90 607T91 588Q93 569 100 569Q108 569 110 574T113 588Q113 598 116 611T125
637T138 663T155 684Q178 705 203 712T261 720Q280 720 303 713T348 684T383 626T398 530Q398 451 365 382T281 252T171 139T59 40Q51 33 45 27T39 14Q39 8 43 4T53 0H445Z" />
<glyph unicode="3" glyph-name="three" horiz-adv-x="600" d="M226 -17Q299 -17 357 3T457 59T520 140T542 240Q542 285 525 319T481 377T423 416T364 437V439Q379 444 403 459T452 497T493 551T510 619Q510 637 502 662T469 710T400 750T283 767Q220 767 176
755T106 731Q96 726 94 723T92 712Q92 695 94 666T99 612Q100 598 107 598Q111 598 113 601T116 613Q116 635 126 654T156 688T200 710T255 719Q293 719 318 706T359 673T381 633T388 596Q388 552 370 521T328 470T277 438T233 424Q215 421 215 410Q215 404 221
401T247 393Q265 390 294 379T350 345T396 288T416 203Q416 158 402 126T363 73T305 42T235 32Q197 32 169 44T122 74T94 117T85 165Q85 179 76 179Q68 179 65 160Q63 152 62 138T60 107T59 72T58 35Q58 26 61 20T75 7Q92 -3 132 -10T226 -17Z" />
<glyph unicode="4" glyph-name="four" horiz-adv-x="600" d="M347 197Q347 173 347 141Q347 109 344 76Q342 53 334 38T297 19Q285 17 271 17T250 16Q242 16 242 6Q242 -3 258 -3Q300 -3 337 -2T395 0Q403 0 418 0T452 -1T493 -2T536 -3Q552 -3 552 6Q552 16 543
16Q535 16 522 17T498 20Q473 25 466 39T456 76Q453 109 453 141Q453 173 453 197H541Q554 197 559 200T568 210Q571 215 574 224T579 243T583 261T585 273Q585 285 576 285Q571 285 561 280T530 275H453V600Q453 624 453 648Q453 673 453 693T454 729Q454 744
454 750Q454 767 442 767Q434 767 428 762T416 749Q414 747 397 725T353 666T292 585T222 493T152 401T91 320T46 262T28 238Q25 234 20 228T15 212Q15 204 23 201T40 197H347ZM347 275H121Q129 286 147 311T189 367T237 434T283 499T321 553T344 584H347V275Z"
/>
<glyph unicode="5" glyph-name="five" horiz-adv-x="600" d="M192 -17Q279 -17 341 8T443 73T502 164T521 264Q521 329 490 377T411 460T305 514T190 544L204 666H386Q416 666 433 662T460 650T471 632T474 612Q474 598 482 598Q487 598 489 601T493 610Q501 658
503 690T506 738Q506 749 504 753T496 757Q494 757 489 756T476 754Q468 752 455 751T420 750H175Q157 750 156 737L133 473Q132 456 151 453Q181 449 224 434T307 391T375 319T404 216Q404 167 390 133T352 76T299 44T239 33Q213 33 189 39T145 60T115 101T103
167Q103 184 94 184Q89 184 87 179T83 166Q81 154 80 137T79 103Q79 86 79 69Q79 52 79 40Q79 24 82 16T98 1Q117 -8 142 -12T192 -17Z" />
<glyph unicode="6" glyph-name="six" horiz-adv-x="600" d="M305 -17Q360 -17 407 1T490 53T545 134T566 240Q566 273 554 309T517 375T454 424T362 443Q320 443 288 433T232 407Q221 400 221 392Q221 382 229 382Q233 382 239 384T251 388Q262 391 273 393T303
395Q328 395 353 384T398 348T431 285T444 195Q444 151 434 120T407 68T367 37T318 27Q280 27 252 48T204 104T176 182T166 269Q166 359 189 433T249 567T331 668T421 736Q429 741 437 746T446 758Q446 763 443 765T434 767Q425 767 412 761Q331 728 263 675T145
556T69 417T41 270Q41 202 60 149T115 59T198 3T305 -17Z" />
<glyph unicode="7" glyph-name="seven" horiz-adv-x="600" d="M230 750Q190 750 165 751T125 755T104 758T95 760Q85 760 85 746Q85 742 83 721T78 674T73 622T70 582Q70 567 78 567Q86 567 88 580Q90 592 98 611T121 640Q139 652 166 655T215 658H474Q439 600
406 539T343 416T286 296T238 189T202 100T180 36Q176 24 175 14T173 -5Q173 -17 187 -17Q204 -17 225 -11T266 6T299 26T313 44Q313 54 312 61T313 81Q317 113 331 165T367 278T414 406T468 533T520 644T567 724Q569 727 571 732T574 742Q574 746 569 748T550
750H230Z" />
<glyph unicode="8" glyph-name="eight" horiz-adv-x="600" d="M293 -17Q356 -17 405 1T488 49T540 120T558 205Q558 251 540 286T494 349T435 395T376 429Q397 437 422 452T470 490T508 544T523 614Q523 650 508 678T466 726T402 756T318 767Q254 767 209 750T136
706T94 647T81 586Q81 554 92 528T122 479T168 438T226 403Q190 388 157 367T98 318T57 256T42 179Q42 133 60 97T112 35T191 -3T293 -17ZM155 185Q155 223 166 254T194 309T232 350T273 379Q306 359 337 340T391 298T428 246T442 180Q442 145 431 118T401 70T356
40T301 29Q271 29 244 41T198 74T167 123T155 185ZM417 605Q417 567 406 540T379 495T347 467T319 452Q250 490 218 524T185 606Q185 627 192 648T213 686T251 713T307 724Q352 724 384 693T417 605Z" />
<glyph unicode="9" glyph-name="nine" horiz-adv-x="600" d="M298 767Q240 767 193 750T113 701T61 628T42 534Q42 502 53 468T90 406T153 360T246 341Q284 341 320 352T378 387Q383 392 383 398Q383 407 375 407Q372 407 368 404T355 396Q345 391 329 388T287
384Q274 384 252 392T208 421T170 479T154 573Q154 605 162 632T187 679T225 710T274 722Q303 722 330 707T379 661T413 582T426 467Q426 378 400 304T335 171T251 70T166 4Q162 1 158 -3T154 -13Q154 -17 157 -20T163 -23Q174 -23 181 -19Q212 -5 251 19T332 78T412
155T482 250T531 363T550 495Q550 552 534 601T485 688T406 746T298 767Z" />
<glyph unicode=":" glyph-name="colon" horiz-adv-x="250" d="M124 30Q153 30 169 49T186 94Q186 120 169 136T125 152Q109 152 98 146T79 131T68 111T64 91Q64 70 78 50T124 30ZM124 368Q152 368 169 387T186 432Q186 459 169 474T125 490Q109 490 98 484T79
469T68 450T64 429Q64 419 67 408T78 388T97 374T124 368Z" />
<glyph unicode=";" glyph-name="semicolon" horiz-adv-x="250" d="M64 81Q64 76 70 70T85 54T99 30T106 -6Q106 -23 100 -44T77 -93Q75 -97 72 -101T69 -110Q69 -114 72 -117T77 -120Q82 -120 85 -117T94 -108Q107 -93 119 -75T141 -39T160 -3T173 25Q178 37 182
51T186 73Q186 81 182 93T164 125Q154 140 150 145T139 150Q128 150 115 144T90 129T72 107T64 81ZM124 368Q152 368 169 386T186 432Q186 459 169 474T125 490Q109 490 98 484T79 469T68 449T64 428Q64 408 78 388T124 368Z" />
<glyph unicode="&lt;" glyph-name="less" horiz-adv-x="549" d="M509 19V86L116 254L509 422V489L40 289V219L509 19Z" />
<glyph unicode="=" glyph-name="equal" horiz-adv-x="549" d="M509 317V378H40V317H509ZM509 128V189H40V128H509Z" />
<glyph unicode="&gt;" glyph-name="greater" horiz-adv-x="549" d="M509 219V289L40 489V422L433 254L40 86V19L509 219Z" />
<glyph unicode="?" glyph-name="question" horiz-adv-x="532" d="M250 767Q184 767 140 754T73 727Q65 722 64 719T62 711Q62 696 62 678Q62 660 62 643T64 613T66 594Q68 588 69 585T76 581Q81 581 82 587T85 601Q87 619 95 640T120 684Q132 699 156 711T215
723Q249 723 272 712T308 682T328 642T334 598Q334 573 330 551T315 504T288 453T246 392Q232 372 215 353T180 312Q169 297 165 285T160 261Q160 247 169 234T205 198Q222 184 236 176T256 167Q261 167 263 170T265 175Q265 181 257 193Q249 204 245 218T241 244Q241
272 292 332Q321 366 351 397T406 461T446 532T462 617Q462 640 452 666T418 714T353 752T250 767ZM232 -17Q258 -17 273 0T289 43Q289 67 273 81T233 96Q203 96 190 77T177 39Q177 20 190 2T232 -17Z" />
<glyph unicode="@" glyph-name="at" horiz-adv-x="902" d="M705 161Q768 205 804 269T840 411Q840 474 820 526T760 617T659 676T516 697Q433 697 353 660T209 560T106 414T66 239Q66 154 92 92T164 -10T270 -71T397 -91Q447 -91 492 -82T576 -56T643 -21T693
18Q714 39 710 48Q707 55 698 53T678 42Q653 22 628 6T573 -23T506 -41T419 -48Q357 -48 306 -28T217 30T159 122T138 247Q138 336 165 412T241 544T358 632T509 664Q578 664 630 644T718 589T770 507T788 406Q788 347 773 304T734 233T686 192T641 178Q616 178
602 197T587 269Q587 297 591 332T601 402T617 470T637 527Q639 532 637 538T626 542Q612 537 599 527T577 509Q567 512 553 514T523 517Q505 517 484 510T440 492T399 469T366 445Q306 395 278 334T249 202Q249 188 252 174T262 147T282 126T313 118Q337 118 361
131T409 167T453 215T494 268Q491 251 491 235T491 207Q495 159 515 137T568 114Q599 114 635 126T705 161ZM498 476Q512 476 524 472T544 462Q530 424 520 386T502 319Q487 299 469 276T433 234T397 202T368 189Q358 189 354 205T349 242Q349 272 354 308T376
382Q397 432 428 454T498 476Z" />
<glyph unicode="A" glyph-name="A" horiz-adv-x="700" d="M427 258Q434 258 437 251L517 39Q521 30 517 24T508 16Q494 15 494 7Q494 2 502 1T524 -1Q584 -3 635 -3Q686 -3 713 -3Q741 -3 750 -1T759 7Q759 15 746 15Q737 15 726 16T704 19Q696 21 687 25T666
41T643 73T616 128Q600 166 577 222T529 343T477 472T429 593T391 689T368 743Q354 775 343 775Q335 775 330 766T315 735L64 107Q49 69 32 46T-21 17Q-27 16 -36 16T-52 15Q-64 15 -64 7Q-64 -3 -45 -3Q-26 -3 -7 -3T29 -2T57 -1T73 0Q96 0 125 -1T179 -3Q196
-3 196 7Q196 12 193 13T181 15H166Q143 15 135 23T126 46Q126 55 129 71T141 107L195 250Q198 258 204 258H427ZM224 308Q218 308 220 315L312 561Q313 564 314 567T318 570Q320 570 321 567T323 561L413 314Q415 308 408 308H224Z" />
<glyph unicode="B" glyph-name="B" horiz-adv-x="707" d="M164 287Q164 218 164 162T159 74Q156 52 151 37T130 19Q123 17 114 16T94 15Q78 15 78 7Q78 -3 98 -3Q113 -3 131 -2T167 -1Q185 0 200 0Q216 0 224 0Q235 0 255 0T299 -3Q321 -4 340 -5T369 -6Q438 -6
488 13T571 63T620 133T636 212Q636 256 619 291T576 353T517 398T454 428Q475 444 493 462T526 501T548 547T556 603Q556 623 548 649T517 698T453 737T343 753Q317 753 288 752T221 750Q213 750 199 750T166 751T126 752T85 753Q63 753 63 744Q63 735 80 735Q91
735 102 735T119 732Q144 727 152 714T162 675Q163 663 163 650T164 613Q164 591 164 555Q164 520 164 463V287ZM284 693Q284 707 293 710Q301 712 308 712Q315 712 326 712Q358 712 381 697T420 660T443 610T451 557Q451 484 410 451Q397 440 380 436T338 432Q304
432 291 435Q288 436 286 438T284 446V693ZM513 167Q513 128 501 103T470 64T430 45T392 39Q375 39 357 41T319 51Q307 56 300 62T290 79T285 106T284 147V384Q284 391 290 391Q301 391 310 391Q319 391 333 390Q362 388 381 383T416 366Q444 346 463 321T493 270T508
217T513 167Z" />
<glyph unicode="C" glyph-name="C" horiz-adv-x="800" d="M522 -17Q546 -17 571 -16T621 -12T666 -5T702 6Q715 11 719 16T728 35Q732 48 736 68T743 109T748 146T750 168Q750 174 748 178T741 183Q735 183 733 179T728 163Q725 149 716 130T694 97Q664 62 621
52T511 41Q461 41 406 63T304 129T227 241T196 397Q196 470 214 537T288 656Q321 686 365 702T476 718Q545 718 599 700T679 656Q698 636 707 612T718 564Q718 542 728 542Q735 542 737 548T740 565Q741 572 741 585Q741 599 741 614T742 645Q742 661 743 673Q745
699 746 710T748 728Q748 739 733 740Q710 742 686 747T633 757Q598 762 567 764T488 767Q376 767 301 739T172 661Q136 628 113 591T78 517T60 446T55 387Q55 351 60 313T80 236T118 161T179 92Q248 32 333 8T522 -17Z" />
<glyph unicode="D" glyph-name="D" horiz-adv-x="936" d="M164 287Q164 218 164 162T159 74Q156 52 151 37T130 19Q123 17 114 16T94 15Q78 15 78 7Q78 -3 98 -3Q113 -3 131 -2T167 -1Q185 0 200 0Q216 0 224 0Q243 0 268 -2T322 -6Q351 -8 380 -10T437 -12Q506
-12 560 0T656 29T726 67T772 106Q793 127 812 155T847 219T872 296T881 385Q881 430 873 468T852 537T821 594T784 639Q743 682 693 705T590 738T483 751T383 753Q338 753 295 752T229 750Q218 750 202 750T167 751T126 752T85 753Q63 753 63 744Q63 735 80 735Q91
735 102 735T119 732Q144 727 152 714T162 675Q163 663 163 650T164 613Q164 591 164 555Q164 520 164 463V287ZM289 479Q289 509 289 539Q289 569 289 596Q289 623 289 644T290 679Q290 694 302 699Q305 700 312 701T330 704T349 705T367 706Q396 706 431 703T503
689T578 659T651 606Q667 591 684 568T715 513T738 443T747 356Q747 278 729 214T663 107Q618 68 564 52T433 35Q373 35 343 48T302 75Q299 79 297 88T294 108T292 130T291 151Q290 165 290 219T289 353V479Z" />
<glyph unicode="E" glyph-name="E" horiz-adv-x="632" d="M164 287Q164 218 164 162T159 74Q156 52 151 37T130 19Q123 17 114 16T94 15Q78 15 78 7Q78 -3 98 -3Q113 -3 131 -2T167 -1Q185 0 200 0Q216 0 224 0Q247 0 271 0T328 -3Q360 -4 402 -5T501 -6Q515 -6
524 -6T540 -3T549 5T555 20Q557 27 559 42T563 74T566 106T568 131Q568 139 567 144T560 149Q552 149 549 134Q544 103 534 86T504 60Q484 51 457 50T410 48Q372 48 349 51T313 64T296 89T290 132Q290 143 290 163Q290 184 290 207Q290 231 290 252Q290 274 290
287V366Q290 376 296 376Q305 376 325 376Q346 376 368 376T411 375T438 373Q466 370 478 360T494 334Q496 324 496 315T498 298Q498 289 507 289Q514 289 515 295T516 308Q516 311 516 319T517 337T519 357T520 375Q523 413 525 428T528 448Q528 456 521 456Q516
456 505 443Q498 435 487 433T457 428Q448 427 425 427T376 426Q351 426 328 426Q305 426 297 426Q290 426 290 437V690Q290 700 297 700Q304 700 325 700T369 699T412 698T439 696Q476 691 488 682T506 660Q510 651 511 640T512 624Q512 610 521 610Q526 610 528
613T531 621Q532 625 532 634T534 654T535 674T536 687Q538 722 541 734T544 752Q544 761 538 761Q534 761 530 760T522 757Q516 755 505 754T479 751Q474 751 456 751T413 750Q388 750 359 750Q330 750 304 750Q278 750 257 750Q237 750 229 750Q218 750 202 750T166
752Q147 752 126 752T85 753Q63 753 63 744Q63 735 80 735Q91 735 102 735T119 732Q144 727 152 714T162 675Q163 663 163 650T164 613Q164 591 164 555Q164 520 164 463V287Z" />
<glyph unicode="F" glyph-name="F" horiz-adv-x="622" d="M290 368Q290 377 297 377Q303 377 323 377Q344 377 368 377T414 376T445 374Q468 371 480 360T496 338Q502 320 502 307Q502 302 503 298T510 293Q518 293 519 299T520 312Q520 315 520 323T521 343T522
366T524 385Q526 408 529 425T532 447Q532 456 526 456Q521 456 519 454T513 446Q505 436 495 433T470 428Q459 427 448 427Q438 427 425 427L297 426Q290 426 290 435V685Q290 699 299 699L453 696Q482 695 498 686T519 666Q524 655 524 645T525 628Q526 612 535
612Q543 612 545 626Q546 630 546 642T548 667T549 691T550 707Q552 727 555 737T558 752Q558 761 551 761Q547 761 544 759T535 755Q527 753 518 753T494 751Q488 751 469 751T424 750Q398 750 368 750Q338 750 310 750Q283 750 261 750Q239 750 230 750Q219 750
203 750T167 752Q147 752 127 752T86 753Q63 753 63 743Q63 735 80 735Q91 735 102 735T119 732Q144 727 152 714T162 675Q163 663 163 650T164 613Q164 591 164 555Q164 520 164 463V287Q164 215 164 161T159 74Q156 52 151 37T130 19Q123 17 114 16T94 15Q79
15 79 7Q79 -3 100 -3Q114 -3 132 -3T168 -2T201 -1T227 0Q247 0 289 -1T379 -3Q401 -3 401 7Q401 15 384 15Q373 15 359 16T334 19Q311 22 304 37T295 74Q291 106 291 160T290 287V368Z" />
<glyph unicode="G" glyph-name="G" horiz-adv-x="886" d="M771 174Q771 212 771 241Q771 271 772 294Q773 320 781 333T810 351Q819 353 825 353T837 354Q850 354 850 362Q850 372 830 372Q818 372 803 372T771 371T740 370T713 369Q702 369 685 369T649 370T608
371T568 372Q547 372 547 362Q547 354 562 354Q573 354 584 354T601 351Q626 346 634 333T644 294Q645 271 645 242Q645 214 645 176V82Q645 69 641 60T626 45Q608 37 585 36T541 34Q462 34 398 62T288 141T218 260T193 410Q193 503 218 561T285 655Q311 677 337
689T389 708T438 715T483 717Q525 717 561 710T625 690T674 665T706 639Q726 618 732 596T740 556Q742 543 750 543Q756 543 758 547T761 564Q761 611 762 641T764 689T767 715T768 728Q768 733 766 736T754 740Q737 741 714 744T675 751Q667 752 649 755T605 760T552
765T498 767Q466 767 434 765T368 756T300 737T229 702Q195 681 164 650T108 578T70 486T55 375Q55 271 92 197T194 76T341 6T517 -17Q546 -17 578 -15T642 -8T704 6T758 28Q767 33 769 38T771 64V174Z" />
<glyph unicode="H" glyph-name="H" horiz-adv-x="972" d="M295 435Q289 435 289 442V463Q289 520 289 555Q289 591 289 613Q289 636 289 649T291 675Q293 701 300 714T328 732Q346 735 357 735Q375 735 375 744Q375 753 354 753Q339 753 321 753T286 752T253 751T228
750Q218 750 202 750T167 751T126 752T84 753Q63 753 63 744Q63 735 80 735Q91 735 102 735T119 732Q144 727 152 714T162 675Q163 663 163 650T164 613Q164 591 164 555Q164 520 164 463V287Q164 218 164 162T159 74Q156 52 151 37T130 19Q123 17 114 16T94 15Q78
15 78 7Q78 -3 98 -3Q113 -3 131 -3T167 -2T200 -1T224 0Q245 0 288 -1T380 -3Q400 -3 400 7Q400 15 384 15Q373 15 359 16T333 19Q310 22 303 37T294 73Q290 105 290 161T289 287V375Q289 381 295 381H677Q683 381 683 375V287Q683 218 683 162T678 74Q675 52
670 37T649 19Q642 17 633 16T613 15Q597 15 597 7Q597 -3 618 -3Q633 -3 651 -3T686 -2T719 -1T743 0Q764 0 807 -1T899 -3Q919 -3 919 7Q919 15 903 15Q892 15 878 16T852 19Q829 22 822 37T813 73Q809 105 809 161T808 287V463Q808 520 808 555Q808 591 808
613Q808 636 808 649T810 675Q812 701 819 714T847 732Q865 735 876 735Q894 735 894 744Q894 753 873 753Q858 753 840 753T805 752T772 751T747 750Q737 750 721 750T686 751T645 752T603 753Q582 753 582 744Q582 735 599 735Q610 735 621 735T638 732Q663 727
671 714T681 675Q682 663 682 650T683 613Q683 591 683 555Q683 520 683 463V442Q683 435 677 435H295Z" />
<glyph unicode="I" glyph-name="I" horiz-adv-x="452" d="M164 287Q164 214 164 158T159 69Q157 47 151 35T130 19Q123 17 114 16T94 15Q78 15 78 7Q78 -3 98 -3Q113 -3 131 -3T167 -2T200 -1T224 0Q244 0 287 -1T380 -3Q399 -3 399 7Q399 15 383 15Q372 15 358
16T332 19Q309 22 302 35T292 68Q289 100 289 157T288 287V463Q288 520 288 555Q288 591 288 613Q288 636 288 649T290 675Q292 701 299 714T327 732Q336 734 342 734T357 735Q373 735 373 745Q373 753 352 753Q338 753 321 753T286 752T254 751T230 750Q219 750
203 750T168 751T132 752T100 753Q76 753 76 745Q76 735 92 735Q101 735 110 734T128 731Q159 724 162 675Q163 663 163 650T164 613Q164 591 164 555Q164 520 164 463V287Z" />
<glyph unicode="J" glyph-name="J" horiz-adv-x="416" d="M164 176Q164 102 163 46T155 -55T133 -133T89 -197Q74 -212 63 -221T41 -235Q28 -242 24 -245T19 -253Q19 -261 27 -261Q36 -261 47 -255Q63 -247 75 -241T97 -229Q169 -184 210 -135T267 -40Q282 2 286
48T291 137Q291 175 290 210T288 278V463Q288 520 288 555Q288 591 288 613Q288 636 288 649T290 675Q292 701 299 714T327 732Q336 734 342 734T356 735Q374 735 374 744Q374 753 353 753Q338 753 320 753T285 752T252 751T227 750Q217 750 201 750T166 751T126
752T85 753Q63 753 63 744Q63 735 80 735Q91 735 102 735T119 732Q144 727 152 714T162 675Q163 663 163 650T164 613Q164 591 164 555Q164 520 164 463V176Z" />
<glyph unicode="K" glyph-name="K" horiz-adv-x="768" d="M286 463Q286 520 286 555Q286 591 286 613Q286 636 286 649T288 675Q290 701 297 714T325 732Q334 734 339 734T353 735Q367 735 367 744Q367 753 346 753Q333 753 316 753T282 752T249 751T225 750Q216
750 201 750T166 751T126 752T85 753Q63 753 63 744Q63 735 80 735Q91 735 102 735T119 732Q144 727 152 714T162 675Q163 663 163 650T164 613Q164 591 164 555Q164 520 164 463V287Q164 218 164 162T159 74Q156 52 151 37T130 19Q123 17 114 16T94 15Q78 15 78
7Q78 -3 98 -3Q113 -3 131 -3T167 -2T200 -1T224 0Q233 0 249 0T284 -1T325 -2T368 -3Q387 -3 387 7Q387 15 374 15Q364 15 350 16T325 19Q306 22 299 37T289 73Q287 105 287 161T286 287V378H291L302 363Q307 356 325 334T369 281T424 217T481 153T531 98T564
64Q580 50 594 39T622 19T652 6T688 -1Q704 -3 719 -3Q734 -3 757 -3H844Q858 -3 863 -1T868 7Q868 15 855 15Q846 15 831 18T793 30Q752 46 718 76T650 138Q640 147 619 169T571 220T513 281T457 344T409 397T379 433Q387 442 404 459T443 498T488 543T533 588T570
625T595 649Q627 681 653 698T703 724Q717 729 733 732T761 735Q776 735 776 744Q776 753 759 753Q747 753 732 753T701 752T669 751T642 750Q632 750 618 750T588 751T560 752T539 753Q523 753 523 744Q523 737 536 734Q550 731 550 714Q550 701 536 683T500 639Q493
630 477 613T441 575T398 531T354 485T316 446T291 419H286V463Z" />
<glyph unicode="L" glyph-name="L" horiz-adv-x="605" d="M289 463Q289 520 289 555Q289 591 289 613Q289 636 289 649T291 675Q293 701 300 714T328 732Q337 734 348 734T367 735Q385 735 385 744Q385 753 364 753Q349 753 330 753T291 752T254 751T228 750Q218
750 202 750T167 751T129 752T91 753Q69 753 69 744Q69 735 86 735Q107 735 119 732Q144 727 152 714T162 675Q163 663 163 650T164 613Q164 591 164 555Q164 520 164 463V287Q164 218 164 162T159 74Q156 52 151 37T130 19Q123 17 114 16T94 15Q78 15 78 7Q78
-3 98 -3Q113 -3 131 -2T167 -1Q185 0 200 0Q216 0 224 0Q255 0 283 0T346 -3Q380 -4 420 -5T515 -6Q534 -6 545 -5T563 -1T573 7T578 21Q581 32 583 49T588 85T592 117T593 136Q593 153 585 153Q579 153 577 149T574 138Q572 124 565 106T548 78Q529 58 500 54T431
50Q402 50 382 51T348 55T325 62T310 72Q294 86 292 138T289 287V463Z" />
<glyph unicode="M" glyph-name="M" horiz-adv-x="1043" d="M102 97Q98 71 90 47T61 18Q50 16 44 16T31 15Q15 15 15 8Q15 1 20 -1T33 -3Q45 -3 59 -3T87 -2T113 -1T132 0Q146 0 175 -1T237 -3Q261 -3 261 8Q261 12 257 13T246 15Q238 15 228 16T204 20Q191 23
183 30T174 52Q174 64 174 74T177 99L229 497H233Q246 469 262 434T294 366T322 308T337 275Q341 264 356 234T390 169T425 99T452 48Q464 25 472 12T487 -2Q494 -2 500 8T524 54L742 508H746L806 68Q809 47 808 37T801 25Q790 20 790 14Q790 9 796 7T819 3Q834
2 864 1T926 -1T985 -2T1022 -3Q1033 -3 1040 -1T1048 8Q1048 15 1032 15Q1022 15 1007 16T970 25Q947 32 938 55T921 126L830 744Q826 775 812 775Q805 775 801 769T790 751L518 180L245 744Q235 764 230 769T218 775Q206 775 201 749L102 97Z" />
<glyph unicode="N" glyph-name="N" horiz-adv-x="947" d="M209 553H212Q219 546 241 521T297 461T369 383T450 301Q489 262 531 220T613 138T687 64T745 7Q753 -1 762 -8T779 -15Q792 -15 792 16L803 647Q804 689 811 707T840 732Q849 734 855 734T870 735Q888
735 888 744Q888 750 882 751T865 753Q828 753 802 752T767 750Q751 750 718 751T646 753Q635 753 628 752T620 744Q620 735 636 735Q647 735 662 735T689 729Q707 721 714 703T723 639L733 190H728Q724 194 711 207T679 241T638 284T592 332T547 378T508 418Q453
472 400 527T303 628T231 703T198 739Q185 753 177 761T161 770Q153 770 151 761T148 736L139 144Q138 79 133 53T108 20Q97 17 85 16T63 15Q47 15 47 7Q47 0 53 -1T69 -3Q108 -3 139 -2T177 0Q191 0 221 -1T301 -3Q324 -3 324 7Q324 15 307 15Q295 15 282 16T255
22Q247 25 241 31T231 51T224 84T220 133L209 553Z" />
<glyph unicode="O" glyph-name="O" horiz-adv-x="927" d="M458 -17Q553 -17 629 15T760 102T843 232T872 393Q872 479 844 548T764 666T636 741T468 767Q355 767 277 730T149 636T78 509T55 375Q55 309 77 240T149 113T274 20T458 -17ZM500 33Q428 33 371 62T275
141T214 260T193 406Q193 499 215 560T273 656T352 705T439 719Q500 719 553 694T647 622T709 507T732 356Q732 284 720 232T687 144T642 86T591 53T541 37T500 33Z" />
<glyph unicode="P" glyph-name="P" horiz-adv-x="655" d="M164 287Q164 218 164 162T159 74Q156 52 151 37T130 19Q123 17 114 16T94 15Q78 15 78 7Q78 -3 98 -3Q113 -3 131 -3T167 -2T200 -1T224 0Q244 0 286 -1T379 -3Q398 -3 398 7Q398 15 382 15Q371 15 357
16T331 19Q308 22 301 37T292 73Q288 105 288 161T287 287V687Q287 703 295 706Q302 708 312 709T334 710Q351 710 379 703T434 671Q455 652 467 631T484 590T491 551T493 521Q493 483 480 453T447 401T404 368T359 356Q343 356 337 354T331 345Q331 340 335 339T343
336Q347 335 353 335Q360 335 364 335Q417 335 462 353T540 403T591 479T610 577Q610 617 594 648T560 696Q554 702 542 711T508 730T454 746T374 753Q339 753 300 752T229 750Q218 750 202 750T167 751T126 752T85 753Q63 753 63 744Q63 735 80 735Q91 735 102
735T119 732Q144 727 152 714T162 675Q163 663 163 650T164 613Q164 591 164 555Q164 520 164 463V287Z" />
<glyph unicode="Q" glyph-name="Q" horiz-adv-x="930" d="M776 -83Q838 -119 890 -145T992 -187T1092 -211T1199 -219Q1253 -219 1301 -212T1389 -193T1461 -168T1516 -144Q1528 -139 1528 -132Q1528 -123 1519 -123Q1516 -123 1513 -124T1504 -128Q1452 -148
1400 -155T1309 -163Q1283 -163 1246 -160T1157 -144T1041 -109T897 -44L696 59Q720 75 750 103T806 173T851 268T870 388Q870 476 841 546T758 665T630 740T465 767Q355 767 278 730T151 635T78 509T55 380Q55 312 77 242T148 114T274 20T462 -17Q502 -17 545
-10T619 9L776 -83ZM499 33Q439 33 384 57T286 129T219 245T194 403Q194 490 214 550T269 647T348 702T442 719Q494 719 545 697T638 631T704 519T730 361Q730 288 719 235T688 146T645 87T595 53T544 37T499 33Z" />
<glyph unicode="R" glyph-name="R" horiz-adv-x="755" d="M164 287Q164 218 164 162T159 74Q156 52 151 37T130 19Q123 17 114 16T94 15Q78 15 78 7Q78 -3 98 -3Q113 -3 131 -3T167 -2T198 -1T220 0Q226 0 241 0T277 -1T321 -2T367 -3Q387 -3 387 7Q387 15 375
15Q366 15 352 16T326 19Q303 22 296 37T287 74Q283 106 283 162T282 288V302Q282 310 290 310L377 308Q389 308 395 301Q400 295 410 281T434 247T463 206T494 163Q536 105 567 69T631 16Q650 5 673 1T738 -3H833Q852 -3 852 7Q852 15 840 15Q828 15 812 18Q806
19 796 21T772 31T739 51T700 86Q655 133 603 198T483 349Q521 380 546 408T587 464T608 518T615 573Q615 598 609 620T592 659T569 690T547 710Q506 738 459 745T363 753Q351 753 333 753T294 752T254 751T222 750Q214 750 199 750T166 751T126 752T85 753Q63
753 63 744Q63 735 80 735Q91 735 102 735T119 732Q144 727 152 714T162 675Q163 663 163 650T164 613Q164 591 164 555Q164 520 164 463V287ZM282 688Q282 699 291 702Q304 706 344 706Q366 706 392 698T442 668T481 612T497 523Q497 461 479 426T438 373Q431
368 425 365T411 360T393 357T367 356Q348 356 328 358T291 366Q282 370 282 384V688Z" />
<glyph unicode="S" glyph-name="S" horiz-adv-x="582" d="M255 -17Q295 -17 335 -9T414 24Q441 42 459 63T488 107T503 153T508 198Q508 234 500 265T472 327T421 388T344 453L316 474Q285 498 265 517T232 552T215 585T210 618Q210 663 241 692T329 721Q353 721
371 716T402 704T423 688T438 672Q454 652 459 633T464 606Q464 588 474 588Q480 588 482 594T485 618Q485 677 487 702T489 738Q489 747 475 750Q455 755 423 761T342 767Q290 767 248 753T175 714T128 654T111 578Q111 548 118 519T143 462T189 403T259 341L305
305Q336 281 355 260T385 219T399 182T403 145Q403 125 395 105T370 69T328 42T269 31Q222 31 183 53T126 132Q122 145 120 159T117 183Q117 189 116 194T107 200Q101 200 99 193T95 174Q95 168 94 155T92 123T91 85T90 43Q90 26 93 20T109 9Q141 -5 176 -11T255
-17Z" />
<glyph unicode="T" glyph-name="T" horiz-adv-x="710" d="M297 287Q297 218 297 162T292 74Q290 52 284 37T263 19Q256 17 247 16T227 15Q211 15 211 7Q211 -3 231 -3Q246 -3 264 -3T300 -2T333 -1T357 0Q378 0 421 -1T514 -3Q533 -3 533 7Q533 15 517 15Q506
15 492 16T466 19Q443 22 436 37T427 73Q423 105 423 161T422 287V697L548 694Q581 693 603 688T639 675T659 658T666 638L667 627Q668 607 678 607Q685 607 687 623Q687 633 687 649T688 683T689 715T690 739Q690 760 682 760Q679 760 673 759T655 755Q644 753
627 752T586 750H190Q165 750 139 751T90 755Q71 757 62 762T47 767Q39 767 35 748Q34 745 31 729T24 694T17 657T14 633Q14 617 23 617Q31 617 34 629Q36 635 39 644T51 664Q62 681 83 686T148 693L297 697V287Z" />
<glyph unicode="U" glyph-name="U" horiz-adv-x="852" d="M121 317Q121 263 127 221T146 148T174 93T210 52Q237 27 268 13T328 -7T385 -15T432 -17Q456 -17 481 -15T533 -4T586 18T640 55Q671 82 690 117T719 191T732 272T735 356V463Q735 520 735 555Q735 591
735 613Q735 636 735 649T737 675Q739 701 746 714T774 732Q783 734 789 734T803 735Q821 735 821 744Q821 753 800 753Q785 753 767 753T733 752T703 751T686 750Q686 750 675 750T648 751T611 752T571 753Q550 753 550 744Q550 735 567 735Q575 735 586 735T603
732Q628 727 636 714T646 675Q647 663 647 650T648 613Q648 591 648 555Q648 520 648 463V338Q648 299 647 264T640 196T623 138T590 90Q560 60 523 48T452 36Q426 36 394 42T327 77Q309 92 295 112T270 160T255 229T249 323V463Q249 520 249 555Q249 591 249 613Q249
636 249 649T251 675Q253 701 260 714T288 732Q297 734 303 734T317 735Q333 735 333 744Q333 753 311 753Q297 753 280 753T245 752T213 751T188 750Q165 750 124 751T42 753Q20 753 20 744Q20 735 37 735Q48 735 59 735T76 732Q101 727 109 714T119 675Q120 663
120 650T121 613Q121 591 121 555Q121 520 121 463V317Z" />
<glyph unicode="V" glyph-name="V" horiz-adv-x="724" d="M324 44Q338 9 345 -4T362 -17Q367 -17 371 -14T380 -2T391 21T408 57Q425 95 459 173T541 362Q561 408 577 443T606 508T633 568T661 633Q671 657 679 673T693 699T705 714T716 723Q730 732 743 733T765
735Q781 735 781 744Q781 753 760 753Q749 753 735 753T708 752T684 751T666 750Q656 750 628 751T561 753Q533 753 533 743Q533 738 538 737T550 735Q560 735 570 734T590 730Q597 728 600 723T603 711Q603 704 601 694T594 674Q588 657 574 622T542 540T503 442T462
340T425 247T397 176H393L221 630Q210 657 204 677T198 707Q198 721 208 728Q214 733 224 734T247 735Q262 735 262 744Q262 749 255 751T239 753Q201 753 168 752T116 750Q90 750 51 751T-29 753Q-40 753 -47 752T-55 744Q-55 735 -43 735Q-37 735 -26 735T-4
731Q9 727 19 723T39 710T55 689T72 655L324 44Z" />
<glyph unicode="W" glyph-name="W" horiz-adv-x="1085" d="M287 20Q294 0 298 -8T310 -17Q319 -17 325 -6T346 36Q357 59 374 101T411 194T452 299T491 401T523 484T541 533H543L751 32Q762 4 768 -6T782 -17Q792 -17 797 -7T811 30Q823 67 839 117T874 222T912
336T949 447T984 546T1011 624Q1027 667 1038 695T1067 730Q1075 733 1084 734T1102 735Q1116 735 1116 745Q1116 753 1098 753Q1086 753 1073 753T1047 752T1027 751T1015 750Q1008 750 980 751T911 753Q888 753 888 744Q888 735 905 735Q934 735 943 726T953
705Q953 694 951 679T943 647Q934 618 922 578T897 494T871 405T845 319T824 248T810 199H807L599 702Q589 726 584 737T570 749Q564 749 559 742T545 713L351 192H348Q343 206 333 238T311 312T284 400T257 489T234 566T220 617Q211 651 205 675T198 709Q198 726
209 731Q214 734 221 734T234 735Q242 735 247 736T252 744Q252 753 231 753Q187 753 157 752T120 750Q117 750 106 750T78 751T43 752T4 753Q-18 753 -18 744Q-18 738 -14 737T-2 735Q5 735 17 733T38 726Q49 718 57 701T75 655L287 20Z" />
<glyph unicode="X" glyph-name="X" horiz-adv-x="712" d="M576 651Q599 684 615 704T649 729Q670 735 685 735Q701 735 701 744Q701 753 683 753Q655 753 628 752T585 750Q571 750 543 751T485 753Q464 753 464 744Q464 739 467 737T476 735Q482 735 491 735T508
732Q525 727 525 714Q525 708 523 698T514 676Q508 665 491 637T452 577T410 513T378 465Q349 516 316 571T251 686Q241 704 241 715Q241 720 243 724T253 731Q259 733 267 734T280 735Q295 735 295 744Q295 753 275 753Q261 753 245 753T213 752T186 751T168 750Q150
750 128 750T84 751T44 752T16 753Q-4 753 -4 745Q-4 735 6 735Q14 735 25 734T48 728Q74 720 93 702T131 653L303 368L112 95Q86 59 69 43T30 20Q19 17 9 16T-7 15Q-21 15 -21 6Q-21 -3 -6 -3H11Q17 -3 28 -3T51 -2T76 -1T95 0Q104 0 119 0T149 -1T175 -2T189
-3H207Q227 -3 227 6Q227 11 224 13T215 15Q209 15 203 15T192 17Q185 19 180 23T173 34Q171 51 187 76L335 315Q370 258 410 188T493 43Q498 33 497 27T491 20Q477 17 477 9Q477 4 484 2T511 -1Q540 -2 568 -2T621 -3Q645 -3 663 -3Q682 -3 691 -3H721Q740 -3
740 7Q740 15 727 15Q720 15 711 16T689 21Q669 27 657 36T631 63Q625 71 609 97T571 158T525 233T478 309T438 374T412 415L576 651Z" />
<glyph unicode="Y" glyph-name="Y" horiz-adv-x="670" d="M276 174Q276 162 276 134T273 74Q271 52 264 37T242 19Q235 17 227 16T207 15Q191 15 191 7Q191 -3 213 -3Q227 -3 244 -3T280 -2T313 -1T338 0Q358 0 401 -1T491 -3Q512 -3 512 7Q512 15 496 15Q485
15 471 16T446 19Q423 22 415 37T405 74Q403 106 403 134T402 174V256Q402 281 404 305T417 356Q421 367 435 392T467 449T507 516T548 583T584 639T608 674Q625 694 635 704T662 723Q673 729 685 732T706 735Q725 735 725 745Q725 753 707 753Q700 753 686 753T655
752T623 751T600 750Q578 750 555 751T506 753Q489 753 489 744Q489 739 494 738T507 734Q520 731 524 724T528 709Q528 688 514 657Q510 649 499 628T471 578T438 517T405 457T378 409T364 382Q360 389 347 412T316 465T278 530T241 596T210 650T194 681Q189 692
186 700T182 715Q182 721 185 726T196 733Q207 736 212 737T218 744Q218 753 203 753Q169 753 141 752T96 750Q84 750 65 750T28 751T-7 752T-30 753Q-49 753 -49 744Q-49 739 -45 737T-34 735Q-25 735 -14 731T8 722Q22 714 40 696T77 649Q86 636 102 611T137
555T175 492T212 432T240 385T253 361Q258 350 262 340T269 318T274 291T276 256V174Z" />
<glyph unicode="Z" glyph-name="Z" horiz-adv-x="710" d="M222 55Q328 217 438 385T653 723Q656 728 658 732T661 742Q661 750 644 750H339Q324 750 306 750Q289 750 267 750Q245 750 218 750T155 753Q136 754 129 757T115 760Q106 760 103 741Q101 730 98 709T91
666T86 625T83 597Q83 580 91 580Q96 580 98 583T103 598Q105 615 118 638T157 676Q169 683 186 687T222 693T261 696T301 697H497Q396 538 288 372T74 40Q65 26 62 21T59 10Q59 0 76 0Q227 0 357 -2T613 -5Q627 -5 633 1T643 21Q646 30 649 46T656 79T661 114T663
143Q663 161 661 167T653 174Q646 174 643 158Q641 147 637 135T625 110Q613 87 579 71T468 55H222Z" />
<glyph unicode="[" glyph-name="bracketleft" horiz-adv-x="360" d="M188 617Q188 646 189 668T195 706Q218 716 249 720T303 727Q320 728 320 737Q320 746 308 746H117Q106 746 104 744T101 733V-106Q101 -117 103 -119T117 -122H307Q319 -122 319 -113Q319 -104
302 -103Q279 -101 248 -97T195 -82Q188 -53 188 11V617Z" />
<glyph unicode="\" glyph-name="backslash" horiz-adv-x="542" d="M525 4Q532 8 525 21L69 761Q63 771 55 766L19 744Q12 741 18 732L477 -13Q483 -23 490 -19L525 4Z" />
<glyph unicode="]" glyph-name="bracketright" horiz-adv-x="360" d="M172 7Q172 -22 171 -44T165 -82Q142 -93 111 -97T57 -103Q40 -104 40 -113Q40 -122 52 -122H243Q254 -122 256 -120T259 -109V730Q259 741 257 743T243 746H53Q41 746 41 737Q41 728 58 727Q81
725 112 721T165 706Q172 677 172 613V7Z" />
<glyph unicode="^" glyph-name="asciicircum" horiz-adv-x="549" d="M501 300L309 748H239L47 300H115L274 672L433 300H501Z" />
<glyph unicode="_" glyph-name="underscore" horiz-adv-x="500" d="M0 -75V-125H500V-75H0Z" />
<glyph unicode="`" glyph-name="grave" horiz-adv-x="927" d="M537 837Q537 842 531 845T516 855Q499 867 481 883T447 914T420 940T405 957Q397 968 395 973T389 979Q385 979 382 978T370 972Q365 970 357 967T339 960T320 953T303 947Q290 944 290 938Q290 933
299 926T323 913Q327 911 343 904T380 888T425 869T470 850T507 836T526 830Q529 830 533 831T537 837Z" />
<glyph unicode="a" glyph-name="a" horiz-adv-x="632" d="M389 211Q396 211 398 205L466 34Q469 26 466 21T458 15Q447 14 447 6Q447 1 454 1T473 -1Q529 -3 574 -3Q619 -3 642 -3Q667 -3 673 -1T680 6Q680 15 668 15Q654 15 635 18Q629 19 622 22T605 35T584
62T560 109Q546 141 526 189T482 291T435 401T391 504T356 586T336 633Q329 647 325 653T310 660Q298 660 284 626L54 91Q40 59 26 40T-19 16Q-25 16 -32 16T-45 15Q-55 15 -55 6Q-55 -3 -39 -3Q-4 -3 26 -2T63 0Q84 0 111 -1T161 -3Q175 -3 175 6Q175 10 173 12T162
15H149Q129 15 122 21T114 39Q114 47 117 61T127 91L174 205Q176 211 182 211H389ZM200 258Q194 258 197 264L282 479Q283 481 284 484T287 487Q289 487 289 484T291 479L374 263Q376 258 370 258H200Z" />
<glyph unicode="b" glyph-name="b" horiz-adv-x="640" d="M144 244Q144 185 144 138T140 63Q138 44 133 33T114 18Q102 15 83 15Q75 15 72 12T69 6Q69 -3 86 -3Q100 -3 115 -3T147 -1Q163 -1 176 -1T197 0Q208 0 228 0T272 -2Q295 -4 314 -4T342 -5Q403 -5 447
11T519 53T562 113T576 180Q576 217 561 247T522 301T470 339T414 364Q433 376 450 391T482 425T504 466T513 513Q513 530 506 552T479 593T423 626T326 640Q315 640 299 640T265 639Q247 639 229 639T194 638Q188 638 175 638T145 639Q129 639 111 639T75 640Q55
640 55 632Q55 623 70 623Q80 623 90 623T105 620Q126 614 133 605T143 574Q143 564 143 553T144 522Q144 503 144 472Q144 442 144 394V244ZM258 585Q258 598 266 599Q273 601 284 601Q295 601 304 601Q332 601 353 589T387 559T407 517T414 473Q414 442 403 420T374
383Q363 374 345 371T305 368Q276 368 264 371Q262 372 260 373T258 380V585ZM258 323Q258 329 263 329H301Q327 329 345 323T377 307Q402 290 418 270T443 230T456 190T460 156Q460 121 450 98T424 61T389 42T352 36Q337 36 322 37T289 46Q268 54 263 71T258 130V323Z"
/>
<glyph unicode="c" glyph-name="c" horiz-adv-x="705" d="M460 -14Q481 -14 504 -13T548 -10T587 -4T619 5Q630 10 634 14T642 30Q645 41 648 58T655 93T659 125T661 143Q661 148 659 153T651 158Q643 158 640 141Q638 129 630 113T610 84Q584 55 548 47T454 39Q410
39 362 57T273 112T206 205T180 337Q180 368 183 398T196 457T221 511T261 558Q291 584 330 595T427 606Q488 606 531 592T597 556Q614 539 622 518T631 477Q631 459 640 459Q646 459 648 465T652 480Q652 486 652 497T653 522Q653 535 653 548T655 572Q657 595
658 604T659 619Q659 628 646 629Q626 631 605 635T558 643Q528 647 500 649T430 652Q332 652 266 628T151 562Q119 534 99 502T68 439T53 380T48 329Q48 298 53 266T70 201T104 137T158 78Q218 27 293 7T460 -14Z" />
<glyph unicode="d" glyph-name="d" horiz-adv-x="831" d="M144 244Q144 185 144 138T140 63Q138 44 133 33T114 18Q102 15 83 15Q75 15 72 12T69 6Q69 -3 86 -3Q100 -3 115 -3T147 -1Q163 -1 176 -1T197 0Q214 0 237 -1T286 -5Q312 -7 339 -8T391 -10Q452 -10
500 0T584 25T646 57T686 90Q705 108 722 132T752 187T774 252T782 327Q782 403 757 456T699 543Q663 579 619 599T527 628T433 638T345 640Q325 640 304 640T263 639Q244 639 228 639T202 638Q183 638 147 639T75 640Q55 640 55 632Q55 623 70 623Q80 623 90 623T105
620Q126 614 133 605T143 574Q143 564 143 553T144 522Q144 503 144 472Q144 442 144 394V244ZM262 407Q262 458 262 504Q262 551 263 573Q263 586 274 590Q279 593 296 594T328 596Q354 596 384 594T446 583T511 558T574 515Q589 502 603 483T629 437T648 377T656
303Q656 237 640 182T581 92Q541 59 495 47T389 34Q337 34 310 45T274 68Q269 75 267 93T264 128Q263 141 263 186T262 300V407Z" />
<glyph unicode="e" glyph-name="e" horiz-adv-x="576" d="M144 244Q144 185 144 138T140 63Q138 44 133 33T114 18Q102 15 83 15Q75 15 72 12T69 6Q69 -3 86 -3Q100 -3 115 -3T147 -1Q163 -1 176 -1T197 0Q217 0 242 0T299 -2Q363 -5 461 -5Q473 -5 481 -5T494
-2T503 4T508 17Q510 23 512 36T516 63T519 90T520 111Q520 118 519 124T512 131Q505 131 502 118Q497 92 489 78T464 55Q447 47 423 46T381 44Q347 44 325 47T289 58T269 79T262 115Q262 124 262 141Q262 158 262 176Q262 195 262 212Q262 230 262 241V309Q262
318 267 318Q275 318 295 318T338 317T380 316T405 314Q430 312 440 303T454 281Q456 273 456 265Q456 257 457 250Q457 243 465 243Q471 243 472 250T474 262Q474 267 475 286T478 319Q482 351 483 364T485 381Q485 390 478 390Q475 390 472 387T464 379Q458 372
448 370T422 366Q414 365 392 365T345 364Q320 364 297 364Q275 364 268 364Q262 364 262 373V583Q262 591 268 591Q275 591 295 591T338 590T380 589T406 587Q439 584 449 576T464 556Q468 548 469 539T470 525Q470 514 477 514Q482 514 484 519T487 528Q488 532
488 540T490 556T491 573T492 584Q494 613 496 623T499 639Q499 647 493 647Q490 647 487 646T479 643Q474 642 464 641T442 638Q438 638 420 638Q403 638 378 638Q354 638 326 638Q298 638 273 638Q248 638 228 638Q209 638 202 638Q183 638 147 639T75 640Q55
640 55 632Q55 623 70 623Q80 623 90 623T105 620Q126 614 133 605T143 574Q143 564 143 553T144 522Q144 503 144 472Q144 442 144 394V244Z" />
<glyph unicode="f" glyph-name="f" horiz-adv-x="567" d="M262 311Q262 318 268 318Q274 318 293 318Q313 318 336 318T380 317T409 315Q429 313 438 303T451 284Q457 269 457 258Q457 253 459 250T465 246Q472 246 473 253T475 265Q475 267 475 274Q475 282 475
291T476 311T478 327Q480 347 482 362T485 382Q485 390 480 390Q476 390 474 388T468 381Q462 373 453 370T431 366Q421 365 411 365Q402 365 391 365L268 364Q262 364 262 372V578Q262 586 264 588T270 590L416 587Q441 586 454 578T472 561Q477 552 477 543Q477
534 477 529Q477 515 488 515Q493 515 494 521T497 532Q497 536 497 546T499 567T500 588T501 601Q503 618 505 626T508 639Q508 647 502 647Q498 647 495 645T488 642Q477 640 452 638Q444 638 409 638Q374 638 332 638Q290 638 252 638Q215 638 202 638Q183 638
147 639T76 640Q55 640 55 632Q55 627 59 625T70 623Q80 623 90 623T105 620Q126 615 133 606T143 574Q143 564 143 553T144 522Q144 503 144 472Q144 442 144 394V244Q144 182 144 136T140 63Q138 44 133 33T114 18Q102 15 83 15Q75 15 73 12T70 6Q70 -3 88 -3Q100
-3 116 -3T147 -2T177 -1T200 0Q209 0 224 0T258 -1T298 -2T341 -3Q360 -3 360 6Q360 9 357 12T345 15Q336 15 324 15T302 18Q282 21 276 32T267 63Q264 90 263 134T262 241V311Z" />
<glyph unicode="g" glyph-name="g" horiz-adv-x="783" d="M681 148Q681 180 681 205Q681 230 682 250Q683 273 690 283T716 296Q731 299 740 299Q751 299 751 308Q751 316 733 316Q711 316 681 315T630 314Q620 314 605 314T570 315Q551 315 532 315T495 316Q476
316 476 308Q476 299 490 299Q499 299 509 299T524 296Q545 290 553 281T562 250Q563 230 563 206Q563 182 563 150V72Q563 50 546 42Q530 35 516 34T484 33Q413 33 357 56T261 122T200 222T178 349Q178 427 200 476T259 556Q282 574 304 584T349 599T391 605T429
606Q466 606 497 600T552 584T593 563T620 541Q637 523 642 504T650 471Q652 460 659 460Q671 460 671 479Q671 519 672 544T674 585T676 608T677 619Q677 624 675 626T665 629Q649 630 629 633T595 638Q588 639 572 641T533 646T487 650T439 652Q383 652 324 643T202
597Q172 579 144 553T95 491T61 413T48 319Q48 231 81 168T170 65T300 5T455 -14Q481 -14 509 -12T566 -6T621 6T670 24Q678 29 679 33T681 54V148Z" />
<glyph unicode="h" glyph-name="h" horiz-adv-x="867" d="M268 363Q262 363 262 369V387Q262 435 262 466Q262 498 262 518Q262 539 262 551T264 574Q266 597 272 607T297 620Q312 623 322 623Q338 623 338 632Q338 640 320 640Q307 640 290 640T256 639Q240 639
226 639T203 638Q194 638 180 638T147 639Q130 639 111 639T74 640Q55 640 55 632Q55 623 70 623Q80 623 90 623T105 620Q126 614 133 605T143 574Q143 564 143 553T144 522Q144 503 144 472Q144 442 144 394V244Q144 185 144 138T140 63Q138 44 133 33T114 18Q102
15 83 15Q75 15 72 12T69 6Q69 -3 86 -3Q99 -3 115 -3T148 -2T177 -1T199 0Q218 0 258 -1T342 -3Q360 -3 360 6Q360 9 357 12T346 15Q336 15 323 15T301 18Q281 21 275 32T267 62Q264 90 263 136T262 242V307Q262 312 268 312H600Q605 312 605 307V242Q605 183
605 137T601 63Q599 44 594 33T575 18Q563 15 543 15Q535 15 532 12T529 6Q529 -3 548 -3Q561 -3 578 -3T611 -2T642 -1T664 0Q682 0 721 -1T803 -3Q821 -3 821 6Q821 9 818 12T807 15Q796 15 784 15T762 18Q742 21 736 32T727 62Q724 90 724 137T723 244V394Q723
442 723 472Q723 503 723 522Q723 541 723 552T725 574Q727 597 733 607T757 620Q773 623 783 623Q799 623 799 632Q799 640 780 640Q767 640 751 640T719 639Q703 639 689 639T667 638Q658 638 643 638T610 639Q592 639 573 639T535 640Q516 640 516 632Q516 623
531 623Q540 623 550 623T565 620Q586 614 593 605T603 574Q603 564 603 552T604 519T605 466Q605 435 605 387V369Q605 363 600 363H268Z" />
<glyph unicode="i" glyph-name="i" horiz-adv-x="407" d="M144 244Q144 182 144 134T140 59Q138 40 133 31T114 18Q102 15 83 15Q75 15 72 12T69 6Q69 -3 86 -3Q99 -3 116 -3T149 -2T179 -1T201 0Q219 0 259 -1T343 -3Q360 -3 360 6Q360 9 357 12T346 15Q336 15
323 15T301 18Q281 21 275 31T266 58Q263 85 263 133T262 244V394Q262 442 262 472Q262 503 262 522Q262 541 262 552T264 574Q266 597 272 607T297 620Q312 623 323 623Q337 623 337 633Q337 640 319 640Q306 640 290 640T258 639Q242 639 228 639T206 638Q197
638 182 638T150 639Q133 639 117 639T88 640Q67 640 67 633Q67 623 81 623Q100 623 113 619Q127 614 134 605T143 574Q143 564 143 553T144 522Q144 503 144 472Q144 442 144 394V244Z" />
<glyph unicode="j" glyph-name="j" horiz-adv-x="373" d="M144 150Q144 87 143 39T136 -46T117 -113T78 -166Q54 -190 36 -199Q25 -204 21 -207T17 -214Q17 -222 24 -222Q27 -222 32 -221T42 -218Q70 -205 86 -196Q150 -158 190 -116T244 -34Q258 2 261 41T265
116Q265 148 264 178T262 236V394Q262 442 262 472Q262 503 262 522Q262 541 262 552T264 574Q266 597 272 607T297 620Q305 622 310 622T322 623Q338 623 338 632Q338 640 320 640Q307 640 291 640T258 639Q243 639 230 639T208 638Q199 638 184 638T150 639Q132
639 112 639T75 640Q55 640 55 632Q55 623 70 623Q80 623 90 623T105 620Q126 614 133 605T143 574Q143 564 143 553T144 522Q144 503 144 472Q144 442 144 394V150Z" />
<glyph unicode="k" glyph-name="k" horiz-adv-x="685" d="M259 394Q259 442 259 472Q259 503 259 522Q259 541 259 552T260 574Q262 597 268 607T293 620Q301 622 306 622T318 623Q330 623 330 632Q330 640 311 640Q300 640 284 640T251 639Q235 639 221 639T198
638Q182 638 146 639T75 640Q55 640 55 632Q55 623 70 623Q80 623 90 623T105 620Q126 614 133 605T143 574Q143 564 143 553T144 522Q144 503 144 472Q144 442 144 394V244Q144 185 144 138T140 63Q138 44 133 33T114 18Q102 15 83 15Q75 15 72 12T69 6Q69 -3
86 -3Q99 -3 115 -3T147 -2T176 -1T197 0Q205 0 220 0T253 -1T292 -2T331 -3Q348 -3 348 6Q348 9 345 12T336 15Q328 15 315 15T293 18Q276 21 270 32T261 62Q259 90 259 137Q259 185 259 244V321H263L272 309Q277 302 293 283T331 239T378 184T426 129T469 83T498
54Q527 29 552 16T612 -1Q626 -3 639 -3Q653 -3 673 -3H750Q762 -3 766 -1T771 6Q771 15 759 15Q751 15 738 16T705 26Q670 40 642 65T585 117Q576 125 558 144T515 187T465 240T415 293T373 338T347 369Q354 377 368 391T401 424T439 461T478 498T511 530T533
550Q561 576 583 590T626 613Q638 618 652 620T677 623Q690 623 690 632Q690 640 675 640Q665 640 652 640T623 639Q609 639 596 639T572 638Q563 638 551 638T525 639Q512 639 500 639T481 640Q467 640 467 632Q467 626 479 623Q491 620 491 606Q491 595 479 580T447
543Q437 532 412 506T357 451T301 395T263 356H259V394Z" />
<glyph unicode="l" glyph-name="l" horiz-adv-x="552" d="M262 394Q262 442 262 472Q262 503 262 522Q262 541 262 552T264 574Q266 597 272 607T297 620Q305 622 314 622T331 623Q347 623 347 632Q347 640 328 640Q315 640 297 640T259 639Q241 639 225 639T201
638Q192 638 178 638T146 639Q130 639 113 639T80 640Q61 640 61 632Q61 623 76 623Q94 623 105 620Q126 614 133 605T143 574Q143 564 143 553T144 522Q144 503 144 472Q144 442 144 394V244Q144 185 144 138T140 63Q138 44 133 33T114 18Q102 15 83 15Q75 15
72 12T69 6Q69 -3 86 -3Q100 -3 115 -3T147 -1Q163 -1 176 -1T197 0Q224 0 252 0T314 -2Q380 -5 472 -5Q489 -5 499 -4T515 -1T523 6T528 18Q531 27 533 42T537 73T540 100T541 116Q541 124 540 129T533 135Q525 135 523 122Q521 110 515 95T501 71Q484 54 459
51T398 47Q347 47 320 51T281 65Q267 77 265 119T262 244V394Z" />
<glyph unicode="m" glyph-name="m" horiz-adv-x="923" d="M90 82Q87 61 80 40T54 17Q43 15 37 15Q32 15 27 15Q13 15 13 7Q13 -3 29 -3Q50 -3 76 -2T116 0Q128 0 154 -1T209 -3Q230 -3 230 7Q230 15 216 15Q205 15 185 19Q174 21 166 26T158 44Q158 55 158 64T161
84L203 416H206Q217 394 231 365T258 309T281 261T294 234Q298 225 311 199T340 143T371 85T395 41Q406 21 414 10T430 -2Q438 -2 444 7T465 46L654 426H657L706 58Q708 40 707 32T702 22Q692 19 692 13Q692 9 697 7T718 3Q731 2 758 1T814 -1T867 -2T900 -3Q910
-3 916 -1T923 7Q923 15 909 15Q901 15 890 16T859 23Q839 29 831 48T816 107L736 632Q734 646 728 652T716 659Q703 659 693 638L457 158L221 632Q212 649 207 654T194 659Q189 659 184 654T177 637L90 82Z" />
<glyph unicode="n" glyph-name="n" horiz-adv-x="841" d="M189 460H192Q198 454 217 434T265 384T327 320T398 250Q432 217 469 182T540 113T604 52T655 5Q662 -2 671 -7T691 -13Q696 -13 700 -7T705 14L715 550Q716 586 722 600T747 620Q755 622 761 622T774
623Q789 623 789 632Q789 640 769 640Q737 640 714 639T683 638Q669 638 638 639T571 640Q549 640 549 632Q549 623 563 623Q572 623 585 623T609 618Q625 612 631 597T639 543L648 165H644Q639 169 617 191T567 243T507 303T454 356Q406 403 359 449T275 534T212
597T183 627Q172 638 163 646T145 655Q138 655 134 647T130 626L122 122Q122 94 121 76T117 45T109 27T95 19Q86 17 75 16T55 15Q41 15 41 6Q41 0 46 -1T61 -3Q95 -3 122 -2T156 0Q168 0 197 -1T270 -3Q290 -3 290 6Q290 15 275 15Q264 15 252 16T229 21Q216 26
209 44T199 113L189 460Z" />
<glyph unicode="o" glyph-name="o" horiz-adv-x="827" d="M408 -14Q493 -14 561 13T678 87T751 197T777 334Q777 407 752 466T681 566T567 629T417 652Q317 652 247 621T133 540T68 432T48 319Q48 262 68 203T131 96T243 17T408 -14ZM444 32Q382 32 333 56T249
123T196 222T178 345Q178 424 197 474T247 554T316 595T391 607Q444 607 490 586T571 526T626 430T646 303Q646 212 623 159T568 77T502 41T444 32Z" />
<glyph unicode="p" glyph-name="p" horiz-adv-x="596" d="M144 244Q144 185 144 138T140 63Q138 44 133 33T114 18Q102 15 83 15Q75 15 72 12T69 6Q69 -3 86 -3Q99 -3 115 -3T147 -2T176 -1T197 0Q206 0 221 0T255 -1T297 -2T341 -3Q357 -3 357 6Q357 9 354 12T343
15Q333 15 321 15T298 18Q278 21 272 32T264 62Q261 90 261 137T260 244V581Q260 594 267 597Q273 599 284 600T305 601Q320 601 344 596T393 569Q411 553 421 536T437 501T444 469T445 443Q445 410 434 385T405 342T366 315T327 305Q298 305 298 294Q298 289 301
287T309 285Q312 284 322 284Q332 284 335 284Q382 284 422 299T492 342T539 407T556 490Q556 525 541 551T512 592Q507 596 496 604T466 620T418 634T348 640Q333 640 314 640T273 639Q253 639 234 639T202 638Q183 638 147 639T75 640Q55 640 55 632Q55 623 70
623Q80 623 90 623T105 620Q126 614 133 605T143 574Q143 564 143 553T144 522Q144 503 144 472Q144 442 144 394V244Z" />
<glyph unicode="q" glyph-name="q" horiz-adv-x="826" d="M683 -74Q737 -106 783 -128T873 -163T961 -183T1056 -189Q1104 -189 1146 -182T1225 -165T1289 -143T1338 -122Q1349 -117 1349 -111Q1349 -103 1341 -103Q1338 -103 1335 -104T1328 -107Q1282 -124 1237
-129T1156 -134Q1133 -134 1100 -131T1023 -118T922 -87T796 -33L623 51Q643 64 669 88T718 148T758 228T774 330Q774 405 748 464T673 565T559 629T413 652Q316 652 247 620T134 540T69 433T48 323Q48 266 68 206T131 97T242 17T407 -14Q424 -14 443 -13T481 -8T517
-2T546 7L683 -74ZM443 32Q390 32 342 52T258 111T201 209T179 343Q179 416 196 466T243 547T311 593T393 607Q438 607 483 589T563 533T620 440T642 307Q642 215 621 161T569 78T504 41T443 32Z" />
<glyph unicode="r" glyph-name="r" horiz-adv-x="686" d="M144 244Q144 185 144 138T140 63Q138 44 133 33T114 18Q102 15 83 15Q75 15 72 12T69 6Q69 -3 86 -3Q99 -3 115 -3T146 -2T175 -1T194 0Q199 0 214 0T248 -1T290 -2T331 -3Q349 -3 349 6Q349 9 346 12T338
15Q330 15 318 15T295 18Q275 21 269 32T261 63Q258 90 257 137T256 244V256Q256 263 263 263L342 261Q352 261 358 255Q362 250 370 238T390 210T415 175T441 139Q478 89 505 59T561 14Q578 5 599 1T657 -3H741Q758 -3 758 6Q758 9 755 12T747 15Q742 15 737 15Q733
15 726 17Q721 18 713 20T692 27T665 44T632 73Q592 113 545 170T439 299Q504 351 532 395T561 487Q561 508 555 526T540 560T519 586T499 604Q464 627 419 633T332 640Q322 640 304 640T264 639Q244 639 225 639T195 638Q181 638 146 639T75 640Q55 640 55 632Q55
623 70 623Q80 623 90 623T105 620Q126 614 133 605T143 574Q143 564 143 553T144 522Q144 503 144 472Q144 442 144 394V244ZM256 581Q256 590 264 593Q271 595 285 595T316 596Q335 596 358 590T402 566T436 519T450 445Q450 392 432 363T393 319Q382 311 370
308T331 305Q314 305 296 306T264 313Q256 317 256 328V581Z" />
<glyph unicode="s" glyph-name="s" horiz-adv-x="540" d="M239 -14Q274 -14 314 -8T386 21Q434 55 454 93T474 180Q474 209 467 235T442 287T395 337T322 386L286 406Q256 422 238 436T210 464T197 491T193 518Q193 540 203 557T229 585T267 603T313 609Q356 609
378 595T411 569Q425 552 429 536T434 513Q434 498 443 498Q454 498 454 525Q454 575 455 597T457 627Q457 635 445 638Q428 643 396 647T320 652Q274 652 234 640T163 606T116 552T98 481Q98 453 105 428T128 380T170 334T236 288L287 258Q316 241 333 225T360
195T371 166T374 138Q374 93 342 62T252 30Q231 30 210 34T169 48T134 74T112 114Q108 125 106 137T104 158Q104 163 103 167T95 172Q84 172 84 150Q83 139 81 106T79 37Q79 23 82 18T96 8Q125 -5 163 -9T239 -14Z" />
<glyph unicode="t" glyph-name="t" horiz-adv-x="633" d="M261 244Q261 185 261 138T257 63Q255 44 250 33T231 18Q220 15 200 15Q192 15 189 12T186 6Q186 -3 203 -3Q216 -3 233 -3T266 -2T296 -1T318 0Q337 0 376 -1T460 -3Q477 -3 477 6Q477 9 474 12T463 15Q453
15 440 15T418 18Q398 21 392 32T384 62Q381 90 380 137T379 244V588L490 586Q520 586 539 581T571 569T588 554T594 537L595 528Q596 511 605 511Q611 511 613 525Q613 533 613 547T614 578Q614 594 614 607T615 628Q615 646 608 646Q606 646 601 645T584 642Q574
640 560 639T524 638H167Q145 638 122 639T79 642Q62 644 54 648T41 652Q34 652 31 636Q30 633 27 619T21 587T15 554T12 533Q12 519 20 519Q27 519 30 530Q32 535 35 542T45 559Q55 573 73 578T130 585L261 588V244Z" />
<glyph unicode="u" glyph-name="u" horiz-adv-x="760" d="M106 269Q106 177 129 125T186 44Q210 23 238 12T293 -6T345 -13T387 -14Q430 -14 478 -3T573 47Q601 70 617 99T643 162T654 231T657 303V394Q657 442 657 472Q657 503 657 522T658 552T659 574Q661 597
667 607T691 620Q699 622 704 622T717 623Q732 623 732 632Q732 640 714 640Q701 640 685 640T653 639Q638 639 627 639T611 638Q611 638 601 638T575 639Q560 639 542 639T506 640Q488 640 488 632Q488 623 503 623Q511 623 520 623T535 620Q556 614 563 605T572
574Q572 564 572 553T573 522T574 472Q574 442 574 394V287Q574 254 573 224T567 168T552 120T523 80Q497 54 466 45T405 35Q382 35 353 40T294 69Q278 82 266 98T245 138T232 195T227 275V394Q227 442 227 472Q227 503 227 522Q227 541 227 552T229 574Q231 597
237 607T261 620Q269 622 274 622T287 623Q301 623 301 632Q301 640 282 640Q270 640 254 640T222 639Q206 639 192 639T169 638Q159 638 144 638T111 639Q93 639 74 639T37 640Q18 640 18 632Q18 623 33 623Q42 623 52 623T67 620Q88 614 95 606T105 574Q106 564
106 552Q106 541 106 522Q106 503 106 472Q106 442 106 394V269Z" />
<glyph unicode="v" glyph-name="v" horiz-adv-x="637" d="M283 37Q296 7 303 -3T319 -14Q328 -14 336 -2T361 48Q376 80 406 147T478 308Q496 347 510 376T536 432T559 483T584 538Q601 578 611 592T630 613Q641 621 653 622T673 623Q687 623 687 632Q687 640
669 640Q649 640 623 639T586 638Q578 638 552 639T492 640Q467 640 467 632Q467 627 471 625T482 623Q490 623 499 622T517 619Q523 617 526 614T529 604Q529 599 527 590T521 573Q516 559 504 529T476 459T442 376T406 290T374 213T349 155H346L198 536Q189 559
184 575T178 600Q178 611 187 617Q192 621 201 622T221 623Q235 623 235 632Q235 637 229 638T214 640Q181 640 150 639T102 638Q79 638 44 639T-26 640Q-48 640 -48 632Q-48 623 -38 623Q-33 623 -24 623T-4 620Q8 617 17 614T33 603T46 586T61 557L283 37Z" />
<glyph unicode="w" glyph-name="w" horiz-adv-x="955" d="M249 17Q255 0 260 -7T273 -14Q283 -14 289 -5T307 31Q316 50 331 86T363 165T399 254T433 339T460 408T476 446H478L657 27Q667 4 673 -5T688 -14Q698 -14 703 -6T716 26Q732 74 755 143T803 285T851
424T890 530Q904 567 913 590T939 619Q947 621 955 622T970 623Q982 623 982 633Q982 640 966 640Q944 640 921 639T893 638Q887 638 861 639T799 640Q778 640 778 632Q778 628 782 626T793 623Q819 623 827 617T836 599Q836 580 827 550Q819 525 809 492T788 421T765
345T743 274T724 216T712 178H709L533 597Q517 637 504 637Q498 637 492 631T478 606L310 172H307Q304 182 296 208T277 268T254 342T231 416T212 481T199 524Q191 553 186 573T180 602Q180 609 181 613T189 619Q198 623 211 623Q227 623 227 632Q227 640 208 640Q170
640 141 639T106 638Q103 638 93 638T69 639Q55 639 38 639T4 640Q-16 640 -16 632Q-16 623 -2 623Q4 623 14 622T32 616Q42 610 48 595T63 557L249 17Z" />
<glyph unicode="x" glyph-name="x" horiz-adv-x="635" d="M516 553Q536 581 550 597T579 618Q599 623 611 623Q625 623 625 632Q625 640 609 640Q584 640 560 639T523 638Q510 638 484 639T431 640Q412 640 412 632Q412 627 415 625T423 623Q428 623 436 623T451
620Q466 617 466 606Q466 601 464 593T456 575Q450 566 435 543T401 492T365 438T337 398Q311 442 284 487T227 583Q223 590 221 597T218 608Q218 617 230 620Q235 622 241 622T251 623Q265 623 265 632Q265 640 247 640Q235 640 220 640T189 639Q175 639 164 639T148
638Q132 638 112 638T73 639Q54 639 38 639T14 640Q-4 640 -4 633Q-4 623 5 623Q21 623 42 617Q65 609 80 595T113 555L268 313L96 81Q85 66 76 55T60 37T44 26T26 19Q16 17 8 16T-6 15Q-18 15 -18 5Q-18 -3 -5 -3H10Q15 -3 25 -3T46 -2T67 -1T84 0Q92 0 105 0T132
-1T156 -2T169 -3H185Q203 -3 203 5Q203 9 200 12T192 15Q187 15 182 15T173 16Q167 16 162 19T156 29Q155 42 169 65L298 265Q328 216 363 158T437 37Q442 29 440 25T434 19Q422 16 422 8Q422 3 429 2T453 -1Q480 -2 506 -2T553 -3Q575 -3 591 -3Q608 -3 616 -3H642Q659
-3 659 6Q659 15 648 15Q642 15 633 16T614 20Q600 25 589 32T566 54Q560 61 546 83T512 134T470 198T428 263T393 319T370 354L516 553Z" />
<glyph unicode="y" glyph-name="y" horiz-adv-x="590" d="M239 148Q239 137 239 114T236 63Q234 44 229 33T209 18Q197 15 178 15Q170 15 167 12T164 6Q164 -3 183 -3Q195 -3 211 -3T244 -2T274 -1T297 0Q306 0 321 0T354 -1T393 -2T435 -3Q454 -3 454 6Q454 9
451 12T439 15Q430 15 418 15T395 18Q375 21 368 32T359 63Q357 90 357 113Q357 137 357 148V216Q357 237 357 257T368 301Q372 310 384 331T413 380T449 437T485 495T517 543T539 573Q553 590 562 598T585 613Q607 623 623 623Q640 623 640 633Q640 640 624 640Q618
640 605 640T577 639Q563 639 550 639T530 638Q510 638 488 639T444 640Q429 640 429 632Q429 627 434 626T445 622Q456 620 460 615T464 603Q464 585 451 558Q448 551 438 533T414 492T385 442T356 392T333 352T320 330Q316 336 305 355T279 399T248 454T216 508T190
553T174 579Q163 598 163 608Q163 618 175 621Q186 624 190 625T195 632Q195 640 182 640Q152 640 124 639T82 638Q71 638 55 638T21 639Q5 639 -8 639T-28 640Q-45 640 -45 632Q-45 623 -32 623Q-24 623 -14 620T5 612Q18 605 31 590T62 552Q70 541 84 520T115
472T150 418T182 367T207 327T219 307Q228 288 233 271T239 218V148Z" />
<glyph unicode="z" glyph-name="z" horiz-adv-x="625" d="M201 51Q295 186 391 328T579 615Q581 620 582 623T584 631Q584 638 569 638H298Q271 638 235 638Q199 638 136 640Q119 641 113 643T101 646Q92 646 91 630Q89 620 86 603T80 566T75 531T73 507Q73 493
82 493Q86 493 88 496T93 508Q95 523 106 542T140 573Q161 584 196 586T265 588H431Q342 456 249 316T61 34Q53 23 52 18T50 9Q50 0 65 0Q199 0 313 -2T539 -4Q551 -4 556 1T566 18Q568 26 571 39T576 67T581 96T583 122Q583 137 581 142T574 148Q567 148 564 134Q562
125 558 115T548 95Q537 75 508 63T412 51H201Z" />
<glyph unicode="{" glyph-name="braceleft" horiz-adv-x="360" d="M136 351Q146 354 157 361T179 379T197 401T208 427Q212 442 214 459T216 498T217 546T216 607Q216 639 225 661T247 699T273 721T296 730Q305 732 309 733T314 739Q314 746 294 746Q267 746 238
736T185 705Q171 692 159 677T139 642T126 594T121 529Q121 510 126 479T131 420Q131 403 129 390T119 371Q105 359 89 358T62 356Q48 355 48 345Q48 340 51 339T62 335Q83 332 98 328T122 310Q129 300 129 280Q129 271 128 258T125 229T122 200T121 173Q121 120
125 83T137 19T153 -24T172 -55Q186 -74 201 -87T230 -107T257 -118T279 -122Q302 -122 308 -121T315 -115Q315 -110 310 -108T291 -102Q278 -99 265 -88T241 -51T223 17T216 122Q216 149 216 170Q216 191 216 208T213 240T206 272Q198 302 177 322T136 350V351Z"
/>
<glyph unicode="|" glyph-name="bar" horiz-adv-x="500" d="M281 -250V750H220V-250H281Z" />
<glyph unicode="}" glyph-name="braceright" horiz-adv-x="360" d="M224 350Q204 342 183 322T154 272Q149 256 147 241T145 208T144 170Q144 149 144 122Q144 59 137 17T120 -50T96 -87T69 -102Q55 -106 50 -108T45 -115Q45 -120 51 -121T81 -122Q90 -122 102
-119T129 -108T159 -87T188 -55Q198 -42 207 -25T223 19T234 82T239 173Q239 185 238 199T235 229T232 257T231 280Q231 300 238 310Q246 323 261 327T298 335Q306 337 309 338T312 345Q312 355 298 356Q287 357 271 358T241 371Q233 377 231 390T229 420Q229 448
234 479T239 529Q239 567 235 594T222 641T201 677T175 705Q152 726 123 736T66 746Q46 746 46 739Q46 734 50 733T64 730Q73 728 86 721T113 699T135 662T144 607Q144 573 144 547T143 499T146 460T152 427Q155 414 163 402T181 379T202 361T224 350Z" />
<glyph unicode="~" glyph-name="asciitilde" horiz-adv-x="549" d="M512 342H455Q454 303 442 281T405 259Q381 259 352 270T287 299Q264 310 246 318T213 331T183 339T153 342Q102 342 69 308T37 197H94Q96 240 110 260T148 280Q172 280 201 268T264 239Q311
216 341 206T400 196Q423 196 444 203T481 227T505 272T512 342Z" />
</font>
</defs>
</svg>
